<svg xmlns="http://www.w3.org/2000/svg" viewBox="0 0 32 32"><title>81-Real Estate</title><g id="_81-Real_Estate" data-name="81-Real Estate"><path d="M2,16a14,14,0,0,1,28,0h2A16,16,0,1,0,16,32V30A14,14,0,0,1,2,16Z"/><path d="M21,18a3,3,0,0,0-3-3H14a1,1,0,0,1,0-2h4a1,1,0,0,1,1,1h2a3,3,0,0,0-3-3H17V9H15v2H14a3,3,0,0,0,0,6h4a1,1,0,0,1,0,2H14a1,1,0,0,1-1-1H11a3,3,0,0,0,3,3h1v2h2V21h1A3,3,0,0,0,21,18Z"/><path d="M26.62,18.22a1,1,0,0,0-1.25,0l-5,4A1,1,0,0,0,20,23v8a1,1,0,0,0,1,1H31a1,1,0,0,0,1-1V23a1,1,0,0,0-.38-.78ZM30,30H28V27a1,1,0,0,0-1-1H25a1,1,0,0,0-1,1v3H22V23.48l4-3.2,4,3.2Z"/></g></svg>